<?xml version="1.0" encoding="UTF-8" standalone="no"?>
<!-- Created with Inkscape (http://www.inkscape.org/) -->

<svg
   version="1.1"
   id="svg125"
   xml:space="preserve"
   width="353.62668"
   height="89.760002"
   viewBox="0 0 353.62668 89.760002"
   sodipodi:docname="Logo_T_weiss.svg"
   inkscape:version="1.1.2 (0a00cf5339, 2022-02-04)"
   xmlns:inkscape="http://www.inkscape.org/namespaces/inkscape"
   xmlns:sodipodi="http://sodipodi.sourceforge.net/DTD/sodipodi-0.dtd"
   xmlns="http://www.w3.org/2000/svg"
   xmlns:svg="http://www.w3.org/2000/svg"><defs
     id="defs129" /><sodipodi:namedview
     id="namedview127"
     pagecolor="#ffffff"
     bordercolor="#666666"
     borderopacity="1.0"
     inkscape:pageshadow="2"
     inkscape:pageopacity="0.0"
     inkscape:pagecheckerboard="0"
     showgrid="false"
     inkscape:zoom="1.6326616"
     inkscape:cx="132.60556"
     inkscape:cy="84.218311"
     inkscape:window-width="1846"
     inkscape:window-height="1016"
     inkscape:window-x="1994"
     inkscape:window-y="27"
     inkscape:window-maximized="1"
     inkscape:current-layer="g131" /><g
     id="g131"
     inkscape:groupmode="layer"
     inkscape:label="ink_ext_XXXXXX"
     transform="matrix(1.3333333,0,0,-1.3333333,0,89.76)"><g
       id="g133"
       transform="scale(0.1)"><path
         d="m 472.277,148.102 h -99.101 l -86.113,304.765 h 89.199 l 47.699,-218.094 h 1.25 l 45.215,218.094 h 85.484 z m -219.89,-0.004 H 166.891 V 382.77 l -32.832,0.07 v 70.023 h 118.328 z m -50.949,436.414 c 27.277,0 49.48,-22.203 49.48,-49.492 0,-27.274 -22.203,-49.481 -49.48,-49.481 -27.29,0 -49.493,22.207 -49.493,49.481 0,27.289 22.203,49.492 49.493,49.492 z M 0,673.191 V 0 H 673.191 V 673.191 H 0"
         style="fill:#ffffff;fill-opacity:1;fill-rule:nonzero;stroke:none"
         id="path135" /><path
         d="m 764.711,351.262 h -13.262 v 101.562 h 13.262 V 351.262"
         style="fill:#ffffff;fill-opacity:1;fill-rule:nonzero;stroke:none"
         id="path137" /><path
         d="m 865.375,351.262 h -13.324 l -50.621,78.265 v -78.265 h -13.332 v 101.562 h 13.332 l 50.758,-78.613 v 78.613 h 13.187 V 351.262"
         style="fill:#ffffff;fill-opacity:1;fill-rule:nonzero;stroke:none"
         id="path139" /><path
         d="m 901.621,441.871 v -79.656 h 13.949 c 10.219,0 18.168,3.207 23.856,9.633 5.683,6.422 8.531,15.574 8.531,27.437 v 5.938 c 0,11.543 -2.684,20.511 -8.047,26.914 -5.363,6.394 -12.972,9.644 -22.82,9.734 z m -13.262,-90.609 v 101.562 h 28.383 c 8.746,0 16.481,-1.953 23.203,-5.859 6.719,-3.906 11.914,-9.461 15.571,-16.668 3.664,-7.211 5.511,-15.488 5.562,-24.836 v -6.484 c 0,-9.582 -1.832,-17.977 -5.492,-25.184 -3.66,-7.207 -8.883,-12.738 -15.676,-16.602 -6.793,-3.859 -14.695,-5.836 -23.719,-5.929 h -27.832"
         style="fill:#ffffff;fill-opacity:1;fill-rule:nonzero;stroke:none"
         id="path141" /><path
         d="M 1051.46,452.824 V 383.77 c -0.05,-9.582 -3.02,-17.418 -8.94,-23.508 -5.91,-6.094 -13.94,-9.512 -24.07,-10.254 l -3.52,-0.141 c -11.01,0 -19.774,3 -26.309,8.996 -6.535,6.004 -9.851,14.254 -9.945,24.77 v 69.191 h 13.121 v -68.777 c 0,-7.352 2,-13.059 6.008,-17.125 4.005,-4.067 9.715,-6.106 17.125,-6.106 7.51,0 13.25,2.024 17.23,6.071 3.98,4.051 5.97,9.742 5.97,17.09 v 68.847 h 13.33"
         style="fill:#ffffff;fill-opacity:1;fill-rule:nonzero;stroke:none"
         id="path143" /><path
         d="m 1102.02,396.535 c -11.38,3.301 -19.65,7.36 -24.83,12.168 -5.18,4.817 -7.77,10.758 -7.77,17.824 0,7.996 3.16,14.614 9.49,19.848 6.33,5.23 14.56,7.848 24.69,7.848 6.91,0 13.06,-1.348 18.47,-4.047 5.41,-2.699 9.6,-6.418 12.57,-11.16 2.97,-4.746 4.46,-9.93 4.46,-15.555 h -13.33 c 0,6.156 -1.93,11 -5.8,14.523 -3.87,3.524 -9.33,5.286 -16.37,5.286 -6.54,0 -11.63,-1.457 -15.3,-4.372 -3.65,-2.91 -5.48,-6.953 -5.48,-12.117 0,-4.152 1.73,-7.656 5.21,-10.523 3.47,-2.863 9.39,-5.485 17.75,-7.863 8.35,-2.372 14.89,-4.989 19.61,-7.848 4.72,-2.863 8.22,-6.199 10.5,-10.012 2.27,-3.812 3.42,-8.301 3.42,-13.461 0,-8.234 -3.18,-14.824 -9.54,-19.777 -6.35,-4.953 -14.84,-7.43 -25.48,-7.43 -6.9,0 -13.35,1.336 -19.34,4.012 -5.98,2.672 -10.6,6.336 -13.84,10.988 -3.25,4.649 -4.87,9.926 -4.87,15.832 h 13.33 c 0,-6.14 2.25,-10.984 6.73,-14.543 4.49,-3.558 10.49,-5.34 17.99,-5.34 7,0 12.36,1.442 16.09,4.329 3.73,2.878 5.6,6.812 5.6,11.789 0,4.972 -1.73,8.82 -5.19,11.543 -3.45,2.722 -9.71,5.41 -18.77,8.058"
         style="fill:#ffffff;fill-opacity:1;fill-rule:nonzero;stroke:none"
         id="path145" /><path
         d="m 1226.19,441.871 h -32.32 v -90.609 h -13.19 v 90.609 h -32.25 v 10.953 h 77.76 v -10.953"
         style="fill:#ffffff;fill-opacity:1;fill-rule:nonzero;stroke:none"
         id="path147" /><path
         d="m 1254.37,403.301 h 20.37 c 6.58,0 11.82,1.722 15.71,5.168 3.89,3.449 5.83,8.062 5.83,13.84 0,6.289 -1.85,11.109 -5.55,14.461 -3.71,3.355 -9.06,5.058 -16.06,5.101 h -20.3 z m 23.62,-10.953 h -23.62 v -41.086 h -13.33 v 101.562 h 33.28 c 11.33,0 20.04,-2.601 26.14,-7.812 6.1,-5.207 9.15,-12.785 9.15,-22.739 0,-6.324 -1.69,-11.835 -5.07,-16.535 -3.39,-4.695 -8.1,-8.207 -14.13,-10.531 l 23.62,-43.109 v -0.836 h -14.22 l -21.82,41.086"
         style="fill:#ffffff;fill-opacity:1;fill-rule:nonzero;stroke:none"
         id="path149" /><path
         d="m 1342.27,351.262 h -13.26 v 101.562 h 13.26 V 351.262"
         style="fill:#ffffff;fill-opacity:1;fill-rule:nonzero;stroke:none"
         id="path151" /><path
         d="m 1422.5,398.207 h -43.57 v -35.992 h 50.61 v -10.953 h -63.87 v 101.562 h 63.19 v -10.953 h -49.93 v -32.715 h 43.57 v -10.949"
         style="fill:#ffffff;fill-opacity:1;fill-rule:nonzero;stroke:none"
         id="path153" /><path
         d="m 1458.67,362.215 h 47.65 v -10.953 h -60.98 v 101.562 h 13.33 v -90.609"
         style="fill:#ffffff;fill-opacity:1;fill-rule:nonzero;stroke:none"
         id="path155" /><path
         d="m 1534.63,362.215 h 47.64 v -10.953 h -60.97 v 101.562 h 13.33 v -90.609"
         style="fill:#ffffff;fill-opacity:1;fill-rule:nonzero;stroke:none"
         id="path157" /><path
         d="m 1654.1,398.207 h -43.57 v -35.992 h 50.61 v -10.953 h -63.88 v 101.562 h 63.19 v -10.953 h -49.92 v -32.715 h 43.57 v -10.949"
         style="fill:#ffffff;fill-opacity:1;fill-rule:nonzero;stroke:none"
         id="path159" /><path
         d="m 1754.21,351.262 h -13.32 l -50.63,78.265 v -78.265 h -13.33 v 101.562 h 13.33 l 50.76,-78.613 v 78.613 h 13.19 V 351.262"
         style="fill:#ffffff;fill-opacity:1;fill-rule:nonzero;stroke:none"
         id="path161" /><path
         d="m 1811.47,369.051 28.73,83.773 h 14.51 l -37.3,-101.562 h -11.74 l -37.22,101.562 h 14.43 l 28.59,-83.773"
         style="fill:#ffffff;fill-opacity:1;fill-rule:nonzero;stroke:none"
         id="path163" /><path
         d="m 1925.57,398.207 h -43.58 v -35.992 h 50.62 v -10.953 h -63.88 v 101.562 h 63.19 v -10.953 h -49.93 v -32.715 h 43.58 v -10.949"
         style="fill:#ffffff;fill-opacity:1;fill-rule:nonzero;stroke:none"
         id="path165" /><path
         d="m 1961.67,403.301 h 20.37 c 6.58,0 11.82,1.722 15.71,5.168 3.89,3.449 5.83,8.062 5.83,13.84 0,6.289 -1.85,11.109 -5.55,14.461 -3.71,3.355 -9.07,5.058 -16.06,5.101 h -20.3 z m 23.61,-10.953 h -23.61 v -41.086 h -13.33 v 101.562 h 33.28 c 11.33,0 20.04,-2.601 26.14,-7.812 6.11,-5.207 9.15,-12.785 9.15,-22.739 0,-6.324 -1.69,-11.835 -5.08,-16.535 -3.37,-4.695 -8.08,-8.207 -14.12,-10.531 l 23.63,-43.109 v -0.836 h -14.23 l -21.83,41.086"
         style="fill:#ffffff;fill-opacity:1;fill-rule:nonzero;stroke:none"
         id="path167" /><path
         d="m 2092.61,398.207 h -43.58 v -35.992 h 50.62 v -10.953 h -63.88 v 101.562 h 63.19 v -10.953 h -49.93 v -32.715 h 43.58 v -10.949"
         style="fill:#ffffff;fill-opacity:1;fill-rule:nonzero;stroke:none"
         id="path169" /><path
         d="m 2129.11,351.262 h -13.26 v 101.562 h 13.26 V 351.262"
         style="fill:#ffffff;fill-opacity:1;fill-rule:nonzero;stroke:none"
         id="path171" /><path
         d="m 2229.77,351.262 h -13.33 l -50.61,78.265 v -78.265 h -13.33 v 101.562 h 13.33 l 50.75,-78.613 v 78.613 h 13.19 V 351.262"
         style="fill:#ffffff;fill-opacity:1;fill-rule:nonzero;stroke:none"
         id="path173" /><path
         d="m 2266.41,351.262 h -13.26 v 101.562 h 13.26 V 351.262"
         style="fill:#ffffff;fill-opacity:1;fill-rule:nonzero;stroke:none"
         id="path175" /><path
         d="m 2364.04,364.59 c -3.41,-4.934 -8.16,-8.621 -14.26,-11.063 -6.1,-2.441 -13.2,-3.66 -21.3,-3.66 -8.2,0 -15.47,1.942 -21.82,5.824 -6.36,3.883 -11.27,9.407 -14.75,16.567 -3.47,7.164 -5.26,15.465 -5.35,24.902 v 8.86 c 0,15.3 3.53,27.156 10.6,35.574 7.07,8.418 17,12.629 29.8,12.629 10.49,0 18.94,-2.711 25.34,-8.125 6.4,-5.422 10.32,-13.106 11.74,-23.059 h -13.26 c -2.48,13.488 -10.4,20.231 -23.75,20.231 -8.89,0 -15.62,-3.157 -20.21,-9.457 -4.58,-6.309 -6.89,-15.446 -6.93,-27.403 v -8.312 c 0,-11.403 2.57,-20.469 7.74,-27.192 5.14,-6.722 12.12,-10.09 20.91,-10.09 4.97,0 9.33,0.559 13.06,1.672 3.73,1.114 6.81,2.992 9.25,5.641 v 22.754 h -23.27 v 10.953 h 36.46 V 364.59"
         style="fill:#ffffff;fill-opacity:1;fill-rule:nonzero;stroke:none"
         id="path177" /><path
         d="M 2456.64,452.824 V 383.77 c -0.04,-9.582 -3.03,-17.418 -8.94,-23.508 -5.91,-6.094 -13.94,-9.512 -24.07,-10.254 l -3.51,-0.141 c -11.01,0 -19.78,3 -26.32,8.996 -6.54,6.004 -9.86,14.254 -9.94,24.77 v 69.191 h 13.12 v -68.777 c 0,-7.352 2,-13.059 6.01,-17.125 4,-4.067 9.7,-6.106 17.13,-6.106 7.5,0 13.24,2.024 17.22,6.071 3.99,4.051 5.98,9.742 5.98,17.09 v 68.847 h 13.32"
         style="fill:#ffffff;fill-opacity:1;fill-rule:nonzero;stroke:none"
         id="path179" /><path
         d="m 2555.26,351.262 h -13.33 l -50.61,78.265 v -78.265 h -13.33 v 101.562 h 13.33 l 50.75,-78.613 v 78.613 h 13.19 V 351.262"
         style="fill:#ffffff;fill-opacity:1;fill-rule:nonzero;stroke:none"
         id="path181" /><path
         d="m 2652.21,364.59 c -3.41,-4.934 -8.17,-8.621 -14.26,-11.063 -6.11,-2.441 -13.21,-3.66 -21.31,-3.66 -8.19,0 -15.47,1.942 -21.82,5.824 -6.35,3.883 -11.27,9.407 -14.74,16.567 -3.48,7.164 -5.27,15.465 -5.35,24.902 v 8.86 c 0,15.3 3.52,27.156 10.59,35.574 7.07,8.418 17,12.629 29.81,12.629 10.48,0 18.93,-2.711 25.34,-8.125 6.39,-5.422 10.31,-13.106 11.74,-23.059 h -13.27 c -2.48,13.488 -10.4,20.231 -23.75,20.231 -8.88,0 -15.62,-3.157 -20.2,-9.457 -4.58,-6.309 -6.9,-15.446 -6.93,-27.403 v -8.312 c 0,-11.403 2.56,-20.469 7.73,-27.192 5.15,-6.722 12.13,-10.09 20.92,-10.09 4.97,0 9.32,0.559 13.05,1.672 3.73,1.114 6.81,2.992 9.25,5.641 v 22.754 h -23.27 v 10.953 h 36.47 V 364.59"
         style="fill:#ffffff;fill-opacity:1;fill-rule:nonzero;stroke:none"
         id="path183" /><path
         d="M 866.352,271.969 H 821.246 V 147.582 h -24.937 v 124.387 h -44.707 v 20.273 h 114.75 v -20.273"
         style="fill:#ffffff;fill-opacity:1;fill-rule:nonzero;stroke:none"
         id="path185" /><path
         d="m 916.535,147.582 h -25.031 v 144.66 h 25.031 v -144.66"
         style="fill:#ffffff;fill-opacity:1;fill-rule:nonzero;stroke:none"
         id="path187" /><path
         d="m 977.859,223.48 h 25.831 c 8.48,0 15.11,2.149 19.87,6.415 4.77,4.269 7.16,10.121 7.16,17.539 0,7.742 -2.21,13.738 -6.61,17.984 -4.41,4.23 -10.98,6.414 -19.72,6.551 h -26.531 z m 28.021,-20.261 h -28.021 v -55.637 h -25.132 v 144.66 h 50.863 c 16.7,0 29.57,-3.754 38.65,-11.234 9.07,-7.496 13.61,-18.34 13.61,-32.52 0,-9.687 -2.34,-17.785 -7,-24.32 -4.67,-6.527 -11.18,-11.543 -19.52,-15.063 l 32.48,-60.238 v -1.285 h -26.92 l -29.01,55.637"
         style="fill:#ffffff;fill-opacity:1;fill-rule:nonzero;stroke:none"
         id="path189" /><path
         d="m 1174.48,223.688 c 0,16.019 -3.03,28.308 -9.09,36.859 -6.06,8.539 -14.65,12.816 -25.78,12.816 -10.87,0 -19.36,-4.254 -25.49,-12.765 -6.12,-8.512 -9.25,-20.559 -9.39,-36.125 v -8.34 c 0,-15.895 3.1,-28.188 9.3,-36.86 6.18,-8.683 14.78,-13.011 25.78,-13.011 11.12,0 19.68,4.23 25.68,12.718 5.99,8.477 8.99,20.864 8.99,37.153 z m 25.14,-7.555 c 0,-14.18 -2.46,-26.617 -7.36,-37.313 -4.9,-10.695 -11.9,-18.898 -21.01,-24.629 -9.11,-5.726 -19.59,-8.597 -31.44,-8.597 -11.73,0 -22.18,2.871 -31.35,8.597 -9.17,5.731 -16.26,13.887 -21.26,24.485 -5,10.597 -7.54,22.824 -7.6,36.66 v 8.144 c 0,14.118 2.5,26.567 7.5,37.364 5,10.793 12.05,19.058 21.16,24.789 9.11,5.726 19.56,8.597 31.35,8.597 11.78,0 22.23,-2.835 31.34,-8.5 9.11,-5.667 16.15,-13.812 21.12,-24.449 4.96,-10.621 7.48,-22.996 7.55,-37.101 v -8.047"
         style="fill:#ffffff;fill-opacity:1;fill-rule:nonzero;stroke:none"
         id="path191" /><path
         d="m 1255.49,167.648 h 65.67 v -20.066 h -90.81 v 144.66 h 25.14 V 167.648"
         style="fill:#ffffff;fill-opacity:1;fill-rule:nonzero;stroke:none"
         id="path193" /></g></g></svg>
